<svg xmlns="http://www.w3.org/2000/svg" width="180" height="180" viewBox="0 0 180 180" role="img" aria-labelledby="pwLogoTitle" fill="none">
  <title id="pwLogoTitle">PixelWind logo</title>
  <defs>
    <linearGradient id="pw-grad" x1="0" y1="0" x2="1" y2="1">
      <stop offset="0%" stop-color="#38bdf8" />
      <stop offset="100%" stop-color="#0ea5e9" />
    </linearGradient>
    <linearGradient id="circle-grad" x1="0" y1="0" x2="1" y2="1">
      <stop offset="0%" stop-color="#0284c7" />
      <stop offset="100%" stop-color="#2563eb" />
    </linearGradient>
  </defs>
  <rect width="180" height="180" rx="36" fill="url(#circle-grad)" />
  <path d="M54 52h18c10 0 18 7.7 18 17.2 0 5.4-2.7 10.2-7.4 13.1 4.6 2.4 7.4 7.4 7.4 13.1C90 98.3 82.3 106 72 106H54V52Zm18 26.5c4.5 0 8.1-3.6 8.1-8.1 0-4.5-3.6-8.1-8.1-8.1H63v16.2H72Zm0 23.6c4.5 0 8.1-3.6 8.1-8.1 0-4.5-3.6-8.1-8.1-8.1H63v16.2H72Z" fill="url(#pw-grad)" />
  <path d="M104 52h14.2l15.8 40.4 15.8-40.4H170l-24.3 60H121.8L104 52Zm20.2 23.8L125.1 92h24.2l-9.1-16.2Z" fill="#ffffff" opacity="0.85" />
</svg>
